<svg width="25" height="24" viewBox="0 0 25 24" fill="none" xmlns="http://www.w3.org/2000/svg">
<mask id="mask0_74_2675" style="mask-type:alpha" maskUnits="userSpaceOnUse" x="0" y="0" width="25" height="24">
<rect x="0.166626" width="24" height="24" fill="#D9D9D9"/>
</mask>
<g mask="url(#mask0_74_2675)">
<path d="M5.16663 21C4.61663 21 4.14579 20.8042 3.75413 20.4125C3.36246 20.0208 3.16663 19.55 3.16663 19V5C3.16663 4.45 3.36246 3.97917 3.75413 3.5875C4.14579 3.19583 4.61663 3 5.16663 3H19.1666C19.7166 3 20.1875 3.19583 20.5791 3.5875C20.9708 3.97917 21.1666 4.45 21.1666 5V7.5H19.1666V5H5.16663V19H19.1666V16.5H21.1666V19C21.1666 19.55 20.9708 20.0208 20.5791 20.4125C20.1875 20.8042 19.7166 21 19.1666 21H5.16663ZM13.1666 17C12.6166 17 12.1458 16.8042 11.7541 16.4125C11.3625 16.0208 11.1666 15.55 11.1666 15V9C11.1666 8.45 11.3625 7.97917 11.7541 7.5875C12.1458 7.19583 12.6166 7 13.1666 7H20.1666C20.7166 7 21.1875 7.19583 21.5791 7.5875C21.9708 7.97917 22.1666 8.45 22.1666 9V15C22.1666 15.55 21.9708 16.0208 21.5791 16.4125C21.1875 16.8042 20.7166 17 20.1666 17H13.1666ZM20.1666 15V9H13.1666V15H20.1666ZM16.1666 13.5C16.5833 13.5 16.9375 13.3542 17.2291 13.0625C17.5208 12.7708 17.6666 12.4167 17.6666 12C17.6666 11.5833 17.5208 11.2292 17.2291 10.9375C16.9375 10.6458 16.5833 10.5 16.1666 10.5C15.75 10.5 15.3958 10.6458 15.1041 10.9375C14.8125 11.2292 14.6666 11.5833 14.6666 12C14.6666 12.4167 14.8125 12.7708 15.1041 13.0625C15.3958 13.3542 15.75 13.5 16.1666 13.5Z" fill="#1C1B1F"/>
</g>
</svg>
