<svg width="16" height="16" viewBox="0 0 16 16" fill="none" xmlns="http://www.w3.org/2000/svg">
<g clip-path="url(#clip0_74_616)">
<mask id="mask0_74_616" style="mask-type:alpha" maskUnits="userSpaceOnUse" x="-1" y="0" width="17" height="17">
<rect x="-0.166748" y="0.5" width="16.1667" height="16.1667" fill="#D9D9D9"/>
</mask>
<g mask="url(#mask0_74_616)">
<path d="M3.53823 8.85303L0.911133 6.22594L3.53823 3.59884L6.16533 6.22594L3.53823 8.85303ZM5.89588 15.3197V11.9517C5.21104 11.8955 4.53181 11.8141 3.8582 11.7075C3.18458 11.6008 2.51658 11.4577 1.85419 11.278L2.191 9.93082C3.13406 10.189 4.07993 10.3659 5.0286 10.4613C5.97728 10.5567 6.93998 10.6044 7.91672 10.6044C8.89347 10.6044 9.85617 10.5567 10.8048 10.4613C11.7535 10.3659 12.6994 10.189 13.6424 9.93082L13.9793 11.278C13.3169 11.4577 12.6489 11.6008 11.9753 11.7075C11.3016 11.8141 10.6224 11.8955 9.93757 11.9517V15.3197H5.89588ZM3.53823 6.96691L4.27921 6.22594L3.53823 5.48496L2.79725 6.22594L3.53823 6.96691ZM7.91672 5.21552C7.35538 5.21552 6.87823 5.01904 6.48529 4.6261C6.09235 4.23316 5.89588 3.75602 5.89588 3.19467C5.89588 2.63333 6.09235 2.15618 6.48529 1.76324C6.87823 1.3703 7.35538 1.17383 7.91672 1.17383C8.47807 1.17383 8.95521 1.3703 9.34816 1.76324C9.7411 2.15618 9.93757 2.63333 9.93757 3.19467C9.93757 3.75602 9.7411 4.23316 9.34816 4.6261C8.95521 5.01904 8.47807 5.21552 7.91672 5.21552ZM7.91672 9.93082C7.54624 9.93082 7.22908 9.7989 6.96524 9.53507C6.70141 9.27124 6.5695 8.95408 6.5695 8.58359C6.5695 8.2131 6.70141 7.89594 6.96524 7.63211C7.22908 7.36828 7.54624 7.23636 7.91672 7.23636C8.28721 7.23636 8.60437 7.36828 8.8682 7.63211C9.13204 7.89594 9.26395 8.2131 9.26395 8.58359C9.26395 8.95408 9.13204 9.27124 8.8682 9.53507C8.60437 9.7989 8.28721 9.93082 7.91672 9.93082ZM7.91672 3.86829C8.10758 3.86829 8.26757 3.80373 8.39667 3.67462C8.52578 3.54551 8.59034 3.38553 8.59034 3.19467C8.59034 3.00381 8.52578 2.84383 8.39667 2.71472C8.26757 2.58561 8.10758 2.52106 7.91672 2.52106C7.72587 2.52106 7.56588 2.58561 7.43677 2.71472C7.30766 2.84383 7.24311 3.00381 7.24311 3.19467C7.24311 3.38553 7.30766 3.54551 7.43677 3.67462C7.56588 3.80373 7.72587 3.86829 7.91672 3.86829ZM11.3185 8.58359L10.1733 6.56274L11.3185 4.5419H13.6088L14.7539 6.56274L13.6088 8.58359H11.3185ZM12.0931 7.23636H12.8341L13.2046 6.56274L12.8341 5.88913H12.0931L11.7226 6.56274L12.0931 7.23636Z" fill="#1C1B1F"/>
</g>
</g>
<defs>
<clipPath id="clip0_74_616">
<rect width="16" height="16" fill="white"/>
</clipPath>
</defs>
</svg>
