<svg width="25" height="24" viewBox="0 0 25 24" fill="none" xmlns="http://www.w3.org/2000/svg">
<mask id="mask0_74_2651" style="mask-type:alpha" maskUnits="userSpaceOnUse" x="0" y="0" width="25" height="24">
<rect x="0.166748" width="24" height="24" fill="#D9D9D9"/>
</mask>
<g mask="url(#mask0_74_2651)">
<path d="M5.16675 21C4.61675 21 4.14591 20.8042 3.75425 20.4125C3.36258 20.0208 3.16675 19.55 3.16675 19V5C3.16675 4.45 3.36258 3.97917 3.75425 3.5875C4.14591 3.19583 4.61675 3 5.16675 3H9.36675C9.58342 2.4 9.94591 1.91667 10.4542 1.55C10.9626 1.18333 11.5334 1 12.1667 1C12.8001 1 13.3709 1.18333 13.8792 1.55C14.3876 1.91667 14.7501 2.4 14.9667 3H19.1667C19.7167 3 20.1876 3.19583 20.5792 3.5875C20.9709 3.97917 21.1667 4.45 21.1667 5V11.7C20.8501 11.55 20.5251 11.4208 20.1917 11.3125C19.8584 11.2042 19.5167 11.125 19.1667 11.075V5H5.16675V19H11.2167C11.2667 19.3667 11.3459 19.7167 11.4542 20.05C11.5626 20.3833 11.6917 20.7 11.8417 21H5.16675ZM5.16675 19V5V11.075V11V19ZM7.16675 17H11.2417C11.2917 16.65 11.3709 16.3083 11.4792 15.975C11.5876 15.6417 11.7084 15.3167 11.8417 15H7.16675V17ZM7.16675 13H13.2667C13.8001 12.5 14.3959 12.0833 15.0542 11.75C15.7126 11.4167 16.4167 11.1917 17.1667 11.075V11H7.16675V13ZM7.16675 9H17.1667V7H7.16675V9ZM12.1667 4.25C12.3834 4.25 12.5626 4.17917 12.7042 4.0375C12.8459 3.89583 12.9167 3.71667 12.9167 3.5C12.9167 3.28333 12.8459 3.10417 12.7042 2.9625C12.5626 2.82083 12.3834 2.75 12.1667 2.75C11.9501 2.75 11.7709 2.82083 11.6292 2.9625C11.4876 3.10417 11.4167 3.28333 11.4167 3.5C11.4167 3.71667 11.4876 3.89583 11.6292 4.0375C11.7709 4.17917 11.9501 4.25 12.1667 4.25ZM18.1667 23C16.7834 23 15.6042 22.5125 14.6292 21.5375C13.6542 20.5625 13.1667 19.3833 13.1667 18C13.1667 16.6167 13.6542 15.4375 14.6292 14.4625C15.6042 13.4875 16.7834 13 18.1667 13C19.5501 13 20.7292 13.4875 21.7042 14.4625C22.6792 15.4375 23.1667 16.6167 23.1667 18C23.1667 19.3833 22.6792 20.5625 21.7042 21.5375C20.7292 22.5125 19.5501 23 18.1667 23ZM17.6667 21H18.6667V18.5H21.1667V17.5H18.6667V15H17.6667V17.5H15.1667V18.5H17.6667V21Z" fill="#1C1B1F"/>
</g>
</svg>
