<svg width="25" height="25" viewBox="0 0 25 25" fill="none" xmlns="http://www.w3.org/2000/svg">
<mask id="mask0_74_2690" style="mask-type:alpha" maskUnits="userSpaceOnUse" x="0" y="0" width="25" height="25">
<rect x="0.333374" y="0.5" width="24" height="24" fill="#D9D9D9"/>
</mask>
<g mask="url(#mask0_74_2690)">
<path d="M7.33337 21.5C6.78337 21.5 6.31254 21.3042 5.92087 20.9125C5.52921 20.5208 5.33337 20.05 5.33337 19.5V6.5H4.33337V4.5H9.33337V3.5H15.3334V4.5H20.3334V6.5H19.3334V19.5C19.3334 20.05 19.1375 20.5208 18.7459 20.9125C18.3542 21.3042 17.8834 21.5 17.3334 21.5H7.33337ZM17.3334 6.5H7.33337V19.5H17.3334V6.5ZM9.33337 17.5H11.3334V8.5H9.33337V17.5ZM13.3334 17.5H15.3334V8.5H13.3334V17.5Z" fill="#1C1B1F"/>
</g>
</svg>
