<svg width="25" height="25" viewBox="0 0 25 25" fill="none" xmlns="http://www.w3.org/2000/svg">
<mask id="mask0_74_2687" style="mask-type:alpha" maskUnits="userSpaceOnUse" x="0" y="0" width="25" height="25">
<rect x="0.5" y="0.5" width="24" height="24" fill="#D9D9D9"/>
</mask>
<g mask="url(#mask0_74_2687)">
<path d="M15.5 18.5V16.5H19.5V18.5H15.5ZM15.5 10.5V8.5H22.5V10.5H15.5ZM15.5 14.5V12.5H21.5V14.5H15.5ZM3.5 8.5H2.5V6.5H6.5V5H10.5V6.5H14.5V8.5H13.5V17.5C13.5 18.05 13.3042 18.5208 12.9125 18.9125C12.5208 19.3042 12.05 19.5 11.5 19.5H5.5C4.95 19.5 4.47917 19.3042 4.0875 18.9125C3.69583 18.5208 3.5 18.05 3.5 17.5V8.5ZM5.5 8.5V17.5H11.5V8.5H5.5Z" fill="#1C1B1F"/>
</g>
</svg>
