<svg width="25" height="25" viewBox="0 0 25 25" fill="none" xmlns="http://www.w3.org/2000/svg">
<mask id="mask0_74_2660" style="mask-type:alpha" maskUnits="userSpaceOnUse" x="0" y="0" width="25" height="25">
<rect x="0.5" y="0.5" width="24" height="24" fill="#D9D9D9"/>
</mask>
<g mask="url(#mask0_74_2660)">
<path d="M8.5 18.5H16.5V16.5H8.5V18.5ZM8.5 14.5H16.5V12.5H8.5V14.5ZM6.5 22.5C5.95 22.5 5.47917 22.3042 5.0875 21.9125C4.69583 21.5208 4.5 21.05 4.5 20.5V4.5C4.5 3.95 4.69583 3.47917 5.0875 3.0875C5.47917 2.69583 5.95 2.5 6.5 2.5H14.5L20.5 8.5V20.5C20.5 21.05 20.3042 21.5208 19.9125 21.9125C19.5208 22.3042 19.05 22.5 18.5 22.5H6.5ZM13.5 9.5V4.5H6.5V20.5H18.5V9.5H13.5Z" fill="#1C1B1F"/>
</g>
</svg>
