<svg width="25" height="25" viewBox="0 0 25 25" fill="none" xmlns="http://www.w3.org/2000/svg">
<mask id="mask0_74_2684" style="mask-type:alpha" maskUnits="userSpaceOnUse" x="0" y="0" width="25" height="25">
<rect x="0.666626" y="0.5" width="24" height="24" fill="#D9D9D9"/>
</mask>
<g mask="url(#mask0_74_2684)">
<path d="M4.66663 14.5V12.5H11.6666V14.5H4.66663ZM4.66663 10.5V8.5H15.6666V10.5H4.66663ZM4.66663 6.5V4.5H15.6666V6.5H4.66663ZM13.6666 20.5V17.425L19.1916 11.925C19.3416 11.775 19.5083 11.6667 19.6916 11.6C19.875 11.5333 20.0583 11.5 20.2416 11.5C20.4416 11.5 20.6333 11.5375 20.8166 11.6125C21 11.6875 21.1666 11.8 21.3166 11.95L22.2416 12.875C22.375 13.025 22.4791 13.1917 22.5541 13.375C22.6291 13.5583 22.6666 13.7417 22.6666 13.925C22.6666 14.1083 22.6333 14.2958 22.5666 14.4875C22.5 14.6792 22.3916 14.85 22.2416 15L16.7416 20.5H13.6666ZM15.1666 19H16.1166L19.1416 15.95L18.6916 15.475L18.2166 15.025L15.1666 18.05V19ZM18.6916 15.475L18.2166 15.025L19.1416 15.95L18.6916 15.475Z" fill="#1C1B1F"/>
</g>
</svg>
