<svg width="25" height="24" viewBox="0 0 25 24" fill="none" xmlns="http://www.w3.org/2000/svg">
<mask id="mask0_74_2642" style="mask-type:alpha" maskUnits="userSpaceOnUse" x="0" y="0" width="25" height="24">
<rect x="0.833374" width="24" height="24" fill="#D9D9D9"/>
</mask>
<g mask="url(#mask0_74_2642)">
<path d="M17.0334 20.5L19.8334 17.7V20H20.8334V16H16.8334V17H19.1334L16.3334 19.8L17.0334 20.5ZM5.83337 21C5.28337 21 4.81254 20.8042 4.42087 20.4125C4.02921 20.0208 3.83337 19.55 3.83337 19V5C3.83337 4.45 4.02921 3.97917 4.42087 3.5875C4.81254 3.19583 5.28337 3 5.83337 3H19.8334C20.3834 3 20.8542 3.19583 21.2459 3.5875C21.6375 3.97917 21.8334 4.45 21.8334 5V11.7C21.5167 11.55 21.1917 11.4208 20.8584 11.3125C20.525 11.2042 20.1834 11.125 19.8334 11.075V5H5.83337V19H11.8834C11.9334 19.3667 12.0125 19.7167 12.1209 20.05C12.2292 20.3833 12.3584 20.7 12.5084 21H5.83337ZM5.83337 19V5V11.075V11V19ZM7.83337 17H11.9084C11.9584 16.65 12.0375 16.3083 12.1459 15.975C12.2542 15.6417 12.375 15.3167 12.5084 15H7.83337V17ZM7.83337 13H13.9334C14.4667 12.5 15.0625 12.0833 15.7209 11.75C16.3792 11.4167 17.0834 11.1917 17.8334 11.075V11H7.83337V13ZM7.83337 9H17.8334V7H7.83337V9ZM18.8334 23C17.45 23 16.2709 22.5125 15.2959 21.5375C14.3209 20.5625 13.8334 19.3833 13.8334 18C13.8334 16.6167 14.3209 15.4375 15.2959 14.4625C16.2709 13.4875 17.45 13 18.8334 13C20.2167 13 21.3959 13.4875 22.3709 14.4625C23.3459 15.4375 23.8334 16.6167 23.8334 18C23.8334 19.3833 23.3459 20.5625 22.3709 21.5375C21.3959 22.5125 20.2167 23 18.8334 23Z" fill="#1C1B1F"/>
</g>
</svg>
