<svg width="25" height="24" viewBox="0 0 25 24" fill="none" xmlns="http://www.w3.org/2000/svg">
<mask id="mask0_74_2630" style="mask-type:alpha" maskUnits="userSpaceOnUse" x="0" y="0" width="25" height="24">
<rect x="0.666626" width="24" height="24" fill="#D9D9D9"/>
</mask>
<g mask="url(#mask0_74_2630)">
<path d="M14.6666 21C14.3833 21 14.1458 20.9042 13.9541 20.7125C13.7625 20.5208 13.6666 20.2833 13.6666 20C13.6666 19.7167 13.7625 19.4792 13.9541 19.2875C14.1458 19.0958 14.3833 19 14.6666 19H17.4916L15.1916 17.375C14.9583 17.2083 14.8208 16.9958 14.7791 16.7375C14.7375 16.4792 14.7916 16.2333 14.9416 16C15.0916 15.7667 15.3 15.6292 15.5666 15.5875C15.8333 15.5458 16.0833 15.6 16.3166 15.75L18.6416 17.35L17.6666 14.7C17.5666 14.45 17.575 14.2 17.6916 13.95C17.8083 13.7 18 13.525 18.2666 13.425C18.5333 13.325 18.7916 13.3333 19.0416 13.45C19.2916 13.5667 19.4666 13.7583 19.5666 14.025L20.5166 16.675L21.2666 13.95C21.35 13.6833 21.5041 13.4792 21.7291 13.3375C21.9541 13.1958 22.2 13.1667 22.4666 13.25C22.7333 13.3333 22.9416 13.4875 23.0916 13.7125C23.2416 13.9375 23.275 14.1833 23.1916 14.45L21.6416 20.25C21.575 20.4833 21.4541 20.6667 21.2791 20.8C21.1041 20.9333 20.9 21 20.6666 21H14.6666ZM3.66663 18V16H5.66663V18H3.66663ZM7.66663 18V16H11.7416C11.6916 16.35 11.6708 16.6833 11.6791 17C11.6875 17.3167 11.7166 17.65 11.7666 18H7.66663ZM3.66663 14V12H5.66663V14H3.66663ZM7.66663 14V12H14.3166C13.9333 12.2667 13.5875 12.5667 13.2791 12.9C12.9708 13.2333 12.7 13.6 12.4666 14H7.66663ZM3.66663 10V8H5.66663V10H3.66663ZM7.66663 10V8H19.6666V10H7.66663ZM3.66663 6V4H5.66663V6H3.66663ZM7.66663 6V4H19.6666V6H7.66663Z" fill="#1C1B1F"/>
</g>
</svg>
