<svg width="40" height="28" viewBox="0 0 40 28" fill="none" xmlns="http://www.w3.org/2000/svg">
<path d="M12.8421 11.0909H14.5263V9.27273H16.2105V7.45455H14.5263V5.63636H12.8421V7.45455H11.1579V9.27273H12.8421V11.0909ZM11.1579 14.7273H16.2105V12.9091H11.1579V14.7273ZM9.05263 18.3636C8.58947 18.3636 8.19298 18.1856 7.86316 17.8295C7.53333 17.4735 7.36842 17.0455 7.36842 16.5455V3.81818C7.36842 3.31818 7.53333 2.89015 7.86316 2.53409C8.19298 2.17803 8.58947 2 9.05263 2H14.9474L20 7.45455V16.5455C20 17.0455 19.8351 17.4735 19.5053 17.8295C19.1754 18.1856 18.7789 18.3636 18.3158 18.3636H9.05263ZM9.05263 16.5455H18.3158V8.36364L14.1053 3.81818H9.05263V16.5455ZM5.68421 22C5.22105 22 4.82456 21.822 4.49474 21.4659C4.16491 21.1098 4 20.6818 4 20.1818V7.45455H5.68421V20.1818H14.9474V22H5.68421Z" fill="black"/>
</svg>
