<svg width="25" height="25" viewBox="0 0 25 25" fill="none" xmlns="http://www.w3.org/2000/svg">
<path d="M12.9474 11.0909H14.8421V9.27273H16.7368V7.45455H14.8421V5.63636H12.9474V7.45455H11.0526V9.27273H12.9474V11.0909ZM11.0526 14.7273H16.7368V12.9091H11.0526V14.7273ZM8.68421 18.3636C8.16316 18.3636 7.71711 18.1856 7.34605 17.8295C6.975 17.4735 6.78947 17.0455 6.78947 16.5455V3.81818C6.78947 3.31818 6.975 2.89015 7.34605 2.53409C7.71711 2.17803 8.16316 2 8.68421 2H15.3158L21 7.45455V16.5455C21 17.0455 20.8145 17.4735 20.4434 17.8295C20.0724 18.1856 19.6263 18.3636 19.1053 18.3636H8.68421ZM8.68421 16.5455H19.1053V8.36364L14.3684 3.81818H8.68421V16.5455ZM4.89474 22C4.37368 22 3.92763 21.822 3.55658 21.4659C3.18553 21.1098 3 20.6818 3 20.1818V7.45455H4.89474V20.1818H15.3158V22H4.89474Z" fill="black"/>
</svg>
