<svg width="25" height="24" viewBox="0 0 25 24" fill="none" xmlns="http://www.w3.org/2000/svg">
<mask id="mask0_74_2648" style="mask-type:alpha" maskUnits="userSpaceOnUse" x="0" y="0" width="25" height="24">
<rect x="0.333374" width="24" height="24" fill="#D9D9D9"/>
</mask>
<g mask="url(#mask0_74_2648)">
<path d="M14.3334 20V19.425C14.3334 19.025 14.4417 18.6583 14.6584 18.325C14.875 17.9917 15.175 17.7417 15.5584 17.575C16.025 17.3917 16.4792 17.25 16.9209 17.15C17.3625 17.05 17.8584 17 18.4084 17C18.8917 17 19.3667 17.05 19.8334 17.15C20.3 17.25 20.725 17.3917 21.1084 17.575C21.4917 17.7417 21.7917 17.9917 22.0084 18.325C22.225 18.6583 22.3334 19.025 22.3334 19.425V20H14.3334ZM18.3334 16C17.7834 16 17.3125 15.8042 16.9209 15.4125C16.5292 15.0208 16.3334 14.55 16.3334 14C16.3334 13.45 16.5292 12.9792 16.9209 12.5875C17.3125 12.1958 17.7834 12 18.3334 12C18.8834 12 19.3542 12.1958 19.7459 12.5875C20.1375 12.9792 20.3334 13.45 20.3334 14C20.3334 14.55 20.1375 15.0208 19.7459 15.4125C19.3542 15.8042 18.8834 16 18.3334 16ZM5.33337 21C4.78337 21 4.31254 20.8042 3.92087 20.4125C3.52921 20.0208 3.33337 19.55 3.33337 19V5C3.33337 4.45 3.52921 3.97917 3.92087 3.5875C4.31254 3.19583 4.78337 3 5.33337 3H19.3334C19.8834 3 20.3542 3.19583 20.7459 3.5875C21.1375 3.97917 21.3334 4.45 21.3334 5V10.65C21.0167 10.5 20.6917 10.3792 20.3584 10.2875C20.025 10.1958 19.6834 10.125 19.3334 10.075V5H5.33337V14H9.53337C9.68337 14.45 9.93337 14.8417 10.2834 15.175C10.6334 15.5083 11.025 15.7417 11.4584 15.875C11.4084 16.2083 11.375 16.5458 11.3584 16.8875C11.3417 17.2292 11.3584 17.5667 11.4084 17.9C10.8084 17.7833 10.2459 17.5625 9.72087 17.2375C9.19587 16.9125 8.73337 16.5 8.33337 16H5.33337V19H11.6584C11.775 19.3667 11.9084 19.7167 12.0584 20.05C12.2084 20.3833 12.3917 20.7 12.6084 21H5.33337ZM7.33337 8.75H17.3334V6.75H7.33337V8.75ZM7.33337 12.25H13.2584C13.7084 11.7667 14.2125 11.3583 14.7709 11.025C15.3292 10.6917 15.9334 10.4333 16.5834 10.25H7.33337V12.25Z" fill="#1C1B1F"/>
</g>
</svg>
