<svg width="25" height="25" viewBox="0 0 25 25" fill="none" xmlns="http://www.w3.org/2000/svg">
<mask id="mask0_74_2678" style="mask-type:alpha" maskUnits="userSpaceOnUse" x="0" y="0" width="25" height="25">
<rect x="0.333374" y="0.5" width="24" height="24" fill="#D9D9D9"/>
</mask>
<g mask="url(#mask0_74_2678)">
<path d="M6.33337 22.5C5.78337 22.5 5.31254 22.3042 4.92087 21.9125C4.52921 21.5208 4.33337 21.05 4.33337 20.5V17.5H6.33337V20.5H18.3334V17.5H20.3334V20.5C20.3334 21.05 20.1375 21.5208 19.7459 21.9125C19.3542 22.3042 18.8834 22.5 18.3334 22.5H6.33337ZM4.33337 11.5V4.5C4.33337 3.95 4.52921 3.47917 4.92087 3.0875C5.31254 2.69583 5.78337 2.5 6.33337 2.5H14.3334L20.3334 8.5V11.5H18.3334V9.5H13.3334V4.5H6.33337V11.5H4.33337ZM9.33337 15.5V13.5H15.3334V15.5H9.33337ZM17.3334 15.5V13.5H23.3334V15.5H17.3334ZM1.33337 15.5V13.5H7.33337V15.5H1.33337Z" fill="#1C1B1F"/>
</g>
</svg>
