<svg width="25" height="25" viewBox="0 0 25 25" fill="none" xmlns="http://www.w3.org/2000/svg">
<mask id="mask0_74_2666" style="mask-type:alpha" maskUnits="userSpaceOnUse" x="0" y="0" width="25" height="25">
<rect x="0.166626" y="0.5" width="24" height="24" fill="#D9D9D9"/>
</mask>
<g mask="url(#mask0_74_2666)">
<path d="M11.1666 17.5H13.1666V16.5H14.1666C14.45 16.5 14.6875 16.4042 14.8791 16.2125C15.0708 16.0208 15.1666 15.7833 15.1666 15.5V12.5C15.1666 12.2167 15.0708 11.9792 14.8791 11.7875C14.6875 11.5958 14.45 11.5 14.1666 11.5H11.1666V10.5H15.1666V8.5H13.1666V7.5H11.1666V8.5H10.1666C9.88329 8.5 9.64579 8.59583 9.45413 8.7875C9.26246 8.97917 9.16663 9.21667 9.16663 9.5V12.5C9.16663 12.7833 9.26246 13.0208 9.45413 13.2125C9.64579 13.4042 9.88329 13.5 10.1666 13.5H13.1666V14.5H9.16663V16.5H11.1666V17.5ZM4.16663 20.5C3.61663 20.5 3.14579 20.3042 2.75413 19.9125C2.36246 19.5208 2.16663 19.05 2.16663 18.5V6.5C2.16663 5.95 2.36246 5.47917 2.75413 5.0875C3.14579 4.69583 3.61663 4.5 4.16663 4.5H20.1666C20.7166 4.5 21.1875 4.69583 21.5791 5.0875C21.9708 5.47917 22.1666 5.95 22.1666 6.5V18.5C22.1666 19.05 21.9708 19.5208 21.5791 19.9125C21.1875 20.3042 20.7166 20.5 20.1666 20.5H4.16663ZM4.16663 18.5H20.1666V6.5H4.16663V18.5Z" fill="#1C1B1F"/>
</g>
</svg>
