<svg width="25" height="24" viewBox="0 0 25 24" fill="none" xmlns="http://www.w3.org/2000/svg">
<mask id="mask0_74_2707" style="mask-type:alpha" maskUnits="userSpaceOnUse" x="0" y="0" width="25" height="24">
<rect x="0.666626" width="24" height="24" fill="#D9D9D9"/>
</mask>
<g mask="url(#mask0_74_2707)">
<path d="M2.66663 19V17H12.6666V19H2.66663ZM2.66663 14V12H7.66663V14H2.66663ZM2.66663 9V7H7.66663V9H2.66663ZM21.2666 19L17.4166 15.15C17.0166 15.4333 16.5791 15.6458 16.1041 15.7875C15.6291 15.9292 15.15 16 14.6666 16C13.2833 16 12.1041 15.5125 11.1291 14.5375C10.1541 13.5625 9.66663 12.3833 9.66663 11C9.66663 9.61667 10.1541 8.4375 11.1291 7.4625C12.1041 6.4875 13.2833 6 14.6666 6C16.05 6 17.2291 6.4875 18.2041 7.4625C19.1791 8.4375 19.6666 9.61667 19.6666 11C19.6666 11.4833 19.5958 11.9625 19.4541 12.4375C19.3125 12.9125 19.1 13.35 18.8166 13.75L22.6666 17.6L21.2666 19ZM14.6666 14C15.5 14 16.2083 13.7083 16.7916 13.125C17.375 12.5417 17.6666 11.8333 17.6666 11C17.6666 10.1667 17.375 9.45833 16.7916 8.875C16.2083 8.29167 15.5 8 14.6666 8C13.8333 8 13.125 8.29167 12.5416 8.875C11.9583 9.45833 11.6666 10.1667 11.6666 11C11.6666 11.8333 11.9583 12.5417 12.5416 13.125C13.125 13.7083 13.8333 14 14.6666 14Z" fill="#1C1B1F"/>
</g>
</svg>
