<svg width="25" height="24" viewBox="0 0 25 24" fill="none" xmlns="http://www.w3.org/2000/svg">
<mask id="mask0_74_2699" style="mask-type:alpha" maskUnits="userSpaceOnUse" x="0" y="0" width="25" height="24">
<rect x="0.5" width="24" height="24" fill="#D9D9D9"/>
</mask>
<g mask="url(#mask0_74_2699)">
<path d="M13.5 21V19H18.1L13.5 14.4V11.6L19.5 17.6V13H21.5V21H13.5ZM6.5 17V16H3.5V14H9.5V11H5.5C4.95 11 4.47917 10.8042 4.0875 10.4125C3.69583 10.0208 3.5 9.55 3.5 9V6C3.5 5.45 3.69583 4.97917 4.0875 4.5875C4.47917 4.19583 4.95 4 5.5 4H6.5V3H8.5V4H11.5V6H5.5V9H9.5C10.05 9 10.5208 9.19583 10.9125 9.5875C11.3042 9.97917 11.5 10.45 11.5 11V14C11.5 14.55 11.3042 15.0208 10.9125 15.4125C10.5208 15.8042 10.05 16 9.5 16H8.5V17H6.5Z" fill="#1C1B1F"/>
</g>
</svg>
