<svg width="25" height="25" viewBox="0 0 25 25" fill="none" xmlns="http://www.w3.org/2000/svg">
<mask id="mask0_74_2681" style="mask-type:alpha" maskUnits="userSpaceOnUse" x="0" y="0" width="25" height="25">
<rect x="0.833252" y="0.5" width="24" height="24" fill="#D9D9D9"/>
</mask>
<g mask="url(#mask0_74_2681)">
<path d="M6.33323 12.9L2.43323 9L6.33323 5.1L10.2332 9L6.33323 12.9ZM9.83323 22.5V17.5C8.81656 17.4167 7.80823 17.2958 6.80823 17.1375C5.80823 16.9792 4.81656 16.7667 3.83323 16.5L4.33323 14.5C5.73323 14.8833 7.13739 15.1458 8.54573 15.2875C9.95406 15.4292 11.3832 15.5 12.8332 15.5C14.2832 15.5 15.7124 15.4292 17.1207 15.2875C18.5291 15.1458 19.9332 14.8833 21.3332 14.5L21.8332 16.5C20.8499 16.7667 19.8582 16.9792 18.8582 17.1375C17.8582 17.2958 16.8499 17.4167 15.8332 17.5V22.5H9.83323ZM6.33323 10.1L7.43323 9L6.33323 7.9L5.23323 9L6.33323 10.1ZM12.8332 7.5C11.9999 7.5 11.2916 7.20833 10.7082 6.625C10.1249 6.04167 9.83323 5.33333 9.83323 4.5C9.83323 3.66667 10.1249 2.95833 10.7082 2.375C11.2916 1.79167 11.9999 1.5 12.8332 1.5C13.6666 1.5 14.3749 1.79167 14.9582 2.375C15.5416 2.95833 15.8332 3.66667 15.8332 4.5C15.8332 5.33333 15.5416 6.04167 14.9582 6.625C14.3749 7.20833 13.6666 7.5 12.8332 7.5ZM12.8332 14.5C12.2832 14.5 11.8124 14.3042 11.4207 13.9125C11.0291 13.5208 10.8332 13.05 10.8332 12.5C10.8332 11.95 11.0291 11.4792 11.4207 11.0875C11.8124 10.6958 12.2832 10.5 12.8332 10.5C13.3832 10.5 13.8541 10.6958 14.2457 11.0875C14.6374 11.4792 14.8332 11.95 14.8332 12.5C14.8332 13.05 14.6374 13.5208 14.2457 13.9125C13.8541 14.3042 13.3832 14.5 12.8332 14.5ZM12.8332 5.5C13.1166 5.5 13.3541 5.40417 13.5457 5.2125C13.7374 5.02083 13.8332 4.78333 13.8332 4.5C13.8332 4.21667 13.7374 3.97917 13.5457 3.7875C13.3541 3.59583 13.1166 3.5 12.8332 3.5C12.5499 3.5 12.3124 3.59583 12.1207 3.7875C11.9291 3.97917 11.8332 4.21667 11.8332 4.5C11.8332 4.78333 11.9291 5.02083 12.1207 5.2125C12.3124 5.40417 12.5499 5.5 12.8332 5.5ZM17.8832 12.5L16.1832 9.5L17.8832 6.5H21.2832L22.9832 9.5L21.2832 12.5H17.8832ZM19.0332 10.5H20.1332L20.6832 9.5L20.1332 8.5H19.0332L18.4832 9.5L19.0332 10.5Z" fill="#1C1B1F"/>
</g>
</svg>
