<svg width="24" height="25" viewBox="0 0 24 25" fill="none" xmlns="http://www.w3.org/2000/svg">
<mask id="mask0_74_2669" style="mask-type:alpha" maskUnits="userSpaceOnUse" x="0" y="0" width="24" height="25">
<rect y="0.5" width="24" height="24" fill="#D9D9D9"/>
</mask>
<g mask="url(#mask0_74_2669)">
<path d="M2 20.5V4.5H22V20.5H2ZM4 18.5H20V6.5H4V18.5ZM8 17.5H10V16.5H11C11.2833 16.5 11.5208 16.4042 11.7125 16.2125C11.9042 16.0208 12 15.7833 12 15.5V12.5C12 12.2167 11.9042 11.9792 11.7125 11.7875C11.5208 11.5958 11.2833 11.5 11 11.5H8V10.5H12V8.5H10V7.5H8V8.5H7C6.71667 8.5 6.47917 8.59583 6.2875 8.7875C6.09583 8.97917 6 9.21667 6 9.5V12.5C6 12.7833 6.09583 13.0208 6.2875 13.2125C6.47917 13.4042 6.71667 13.5 7 13.5H10V14.5H6V16.5H8V17.5ZM16 16.75L18 14.75H14L16 16.75ZM14 10.5H18L16 8.5L14 10.5Z" fill="#1C1B1F"/>
</g>
</svg>
