<svg width="24" height="25" viewBox="0 0 24 25" fill="none" xmlns="http://www.w3.org/2000/svg">
<mask id="mask0_74_2654" style="mask-type:alpha" maskUnits="userSpaceOnUse" x="0" y="0" width="24" height="25">
<rect y="0.5" width="24" height="24" fill="#D9D9D9"/>
</mask>
<g mask="url(#mask0_74_2654)">
<path d="M11 20.5V12.35L8.4 14.95L7 13.5L12 8.5L17 13.5L15.6 14.95L13 12.35V20.5H11ZM4 9.5V6.5C4 5.95 4.19583 5.47917 4.5875 5.0875C4.97917 4.69583 5.45 4.5 6 4.5H18C18.55 4.5 19.0208 4.69583 19.4125 5.0875C19.8042 5.47917 20 5.95 20 6.5V9.5H18V6.5H6V9.5H4Z" fill="#1C1B1F"/>
</g>
</svg>
