<svg width="25" height="24" viewBox="0 0 25 24" fill="none" xmlns="http://www.w3.org/2000/svg">
<mask id="mask0_74_2636" style="mask-type:alpha" maskUnits="userSpaceOnUse" x="0" y="0" width="25" height="24">
<rect x="0.333374" width="24" height="24" fill="#D9D9D9"/>
</mask>
<g mask="url(#mask0_74_2636)">
<path d="M11.3334 19H13.3334V18H14.3334C14.6167 18 14.8542 17.9042 15.0459 17.7125C15.2375 17.5208 15.3334 17.2833 15.3334 17V14C15.3334 13.7167 15.2375 13.4792 15.0459 13.2875C14.8542 13.0958 14.6167 13 14.3334 13H11.3334V12H15.3334V10H13.3334V9H11.3334V10H10.3334C10.05 10 9.81254 10.0958 9.62087 10.2875C9.42921 10.4792 9.33337 10.7167 9.33337 11V14C9.33337 14.2833 9.42921 14.5208 9.62087 14.7125C9.81254 14.9042 10.05 15 10.3334 15H13.3334V16H9.33337V18H11.3334V19ZM6.33337 22C5.78337 22 5.31254 21.8042 4.92087 21.4125C4.52921 21.0208 4.33337 20.55 4.33337 20V4C4.33337 3.45 4.52921 2.97917 4.92087 2.5875C5.31254 2.19583 5.78337 2 6.33337 2H14.3334L20.3334 8V20C20.3334 20.55 20.1375 21.0208 19.7459 21.4125C19.3542 21.8042 18.8834 22 18.3334 22H6.33337ZM13.3334 8V4H6.33337V20H18.3334V8H13.3334Z" fill="#1C1B1F"/>
</g>
</svg>
