<svg width="16" height="16" viewBox="0 0 16 16" fill="none" xmlns="http://www.w3.org/2000/svg">
<g clip-path="url(#clip0_11_236)">
<mask id="mask0_11_236" style="mask-type:alpha" maskUnits="userSpaceOnUse" x="-1" y="0" width="17" height="16">
<rect x="-0.333496" width="16" height="16" fill="#D9D9D9"/>
</mask>
<g mask="url(#mask0_11_236)">
<path d="M0.999756 12.6667V11.3333H7.66642V12.6667H0.999756ZM0.999756 9.33333V8H4.33309V9.33333H0.999756ZM0.999756 6V4.66667H4.33309V6H0.999756ZM13.3998 12.6667L10.8331 10.1C10.5664 10.2889 10.2748 10.4306 9.95809 10.525C9.64142 10.6194 9.32198 10.6667 8.99976 10.6667C8.07753 10.6667 7.29142 10.3417 6.64142 9.69167C5.99142 9.04167 5.66642 8.25556 5.66642 7.33333C5.66642 6.41111 5.99142 5.625 6.64142 4.975C7.29142 4.325 8.07753 4 8.99976 4C9.92198 4 10.7081 4.325 11.3581 4.975C12.0081 5.625 12.3331 6.41111 12.3331 7.33333C12.3331 7.65556 12.2859 7.975 12.1914 8.29167C12.097 8.60833 11.9553 8.9 11.7664 9.16667L14.3331 11.7333L13.3998 12.6667ZM8.99976 9.33333C9.55531 9.33333 10.0275 9.13889 10.4164 8.75C10.8053 8.36111 10.9998 7.88889 10.9998 7.33333C10.9998 6.77778 10.8053 6.30556 10.4164 5.91667C10.0275 5.52778 9.55531 5.33333 8.99976 5.33333C8.4442 5.33333 7.97198 5.52778 7.58309 5.91667C7.1942 6.30556 6.99976 6.77778 6.99976 7.33333C6.99976 7.88889 7.1942 8.36111 7.58309 8.75C7.97198 9.13889 8.4442 9.33333 8.99976 9.33333Z" fill="#9CA3AF"/>
</g>
</g>
<defs>
<clipPath id="clip0_11_236">
<rect width="16" height="16" fill="white"/>
</clipPath>
</defs>
</svg>
