<svg width="25" height="25" viewBox="0 0 25 25" fill="none" xmlns="http://www.w3.org/2000/svg">
<mask id="mask0_74_2657" style="mask-type:alpha" maskUnits="userSpaceOnUse" x="0" y="0" width="25" height="25">
<rect x="0.833374" y="0.5" width="24" height="24" fill="#D9D9D9"/>
</mask>
<g mask="url(#mask0_74_2657)">
<path d="M5.83337 21.5C5.28337 21.5 4.81254 21.3042 4.42087 20.9125C4.02921 20.5208 3.83337 20.05 3.83337 19.5V5.5C3.83337 4.95 4.02921 4.47917 4.42087 4.0875C4.81254 3.69583 5.28337 3.5 5.83337 3.5H19.8334C20.3834 3.5 20.8542 3.69583 21.2459 4.0875C21.6375 4.47917 21.8334 4.95 21.8334 5.5V19.5C21.8334 20.05 21.6375 20.5208 21.2459 20.9125C20.8542 21.3042 20.3834 21.5 19.8334 21.5H5.83337ZM12.8334 19.5H19.8334V5.5H12.8334V19.5Z" fill="#1C1B1F"/>
</g>
</svg>
