<svg width="25" height="24" viewBox="0 0 25 24" fill="none" xmlns="http://www.w3.org/2000/svg">
<mask id="mask0_74_2704" style="mask-type:alpha" maskUnits="userSpaceOnUse" x="0" y="0" width="25" height="24">
<rect x="0.833374" width="24" height="24" fill="#D9D9D9"/>
</mask>
<g mask="url(#mask0_74_2704)">
<path d="M3.83337 17V15H17.8334V17H3.83337ZM3.83337 13V11H17.8334V13H3.83337ZM3.83337 9V7H17.8334V9H3.83337ZM20.8334 17C20.55 17 20.3125 16.9042 20.1209 16.7125C19.9292 16.5208 19.8334 16.2833 19.8334 16C19.8334 15.7167 19.9292 15.4792 20.1209 15.2875C20.3125 15.0958 20.55 15 20.8334 15C21.1167 15 21.3542 15.0958 21.5459 15.2875C21.7375 15.4792 21.8334 15.7167 21.8334 16C21.8334 16.2833 21.7375 16.5208 21.5459 16.7125C21.3542 16.9042 21.1167 17 20.8334 17ZM20.8334 13C20.55 13 20.3125 12.9042 20.1209 12.7125C19.9292 12.5208 19.8334 12.2833 19.8334 12C19.8334 11.7167 19.9292 11.4792 20.1209 11.2875C20.3125 11.0958 20.55 11 20.8334 11C21.1167 11 21.3542 11.0958 21.5459 11.2875C21.7375 11.4792 21.8334 11.7167 21.8334 12C21.8334 12.2833 21.7375 12.5208 21.5459 12.7125C21.3542 12.9042 21.1167 13 20.8334 13ZM20.8334 9C20.55 9 20.3125 8.90417 20.1209 8.7125C19.9292 8.52083 19.8334 8.28333 19.8334 8C19.8334 7.71667 19.9292 7.47917 20.1209 7.2875C20.3125 7.09583 20.55 7 20.8334 7C21.1167 7 21.3542 7.09583 21.5459 7.2875C21.7375 7.47917 21.8334 7.71667 21.8334 8C21.8334 8.28333 21.7375 8.52083 21.5459 8.7125C21.3542 8.90417 21.1167 9 20.8334 9Z" fill="#1C1B1F"/>
</g>
</svg>
